<!-- Generated by IcoMoon.io -->
<svg version="1.1" xmlns="http://www.w3.org/2000/svg" width="1024" height="1024" viewBox="0 0 1024 1024">
<g id="icomoon-ignore">
</g>
<path fill="currentColor" d="M814.549 567.211c-2.432 2.133-10.539 3.84-16.896 5.632l-203.861 55.723c-6.4 1.749-11.648-2.219-11.648-8.875v-52.651c0-0.013 0-0.028 0-0.043 0-6.645-5.387-12.032-12.032-12.032-0.015 0-0.030 0-0.045 0h-223.742c-6.645 0-12.032-5.387-12.032-12.032v0-61.227c0-6.669-5.406-12.075-12.075-12.075v0h-107.392c-4.267 0-7.68-3.413-7.68-7.595 0-2.475 1.067-4.181 2.347-5.376 2.389-2.219 10.496-3.968 16.939-5.717l203.008-55.467c6.4-1.792 11.605 2.176 11.605 8.875v53.205c0 6.656 5.461 12.075 12.117 12.075h223.573c6.656 0 12.032 5.376 12.032 12.075v60.587c0 6.699 5.419 12.117 12.032 12.117h108.459c0 0 0 0 0 0 4.227 0 7.656 3.414 7.68 7.635v0.002c-0.009 2.049-0.931 3.881-2.38 5.112l-0.010 0.008zM688.768 664.789c-0.298 7.12-5.027 13.061-11.488 15.156l-0.118 0.033-83.371 22.784c-6.4 1.792-11.648-2.219-11.648-8.875v-31.061c0-6.699 5.419-12.117 12.075-12.117h82.475c6.699 0 12.075 5.419 12.075 12.117zM440.875 732.459c-0.28 7.137-5.014 13.098-11.488 15.199l-0.118 0.033-83.328 22.827c-6.4 1.707-11.648-2.261-11.648-8.917v-160.341c0-6.699 5.419-12.117 12.075-12.117h82.475c6.656 0 12.075 5.419 12.075 12.117zM334.336 360.96c0.286-7.147 5.039-13.113 11.53-15.199l0.118-0.033 83.285-22.784c6.485-1.792 11.691 2.219 11.691 8.875v31.104c0 6.669-5.406 12.075-12.075 12.075v0h-82.517c-6.669 0-12.075-5.406-12.075-12.075v0zM582.187 293.248c0-6.699 5.205-13.483 11.648-15.275l83.371-22.741c6.4-1.792 11.605 2.219 11.605 8.875v160.384c0 6.669-5.406 12.075-12.075 12.075h-82.475c-6.669 0-12.075-5.406-12.075-12.075v0zM512 0c-282.283 0-512 229.717-512 512 0 282.325 229.717 512 512 512 282.368 0 512-229.675 512-512 0-282.283-229.632-512-512-512z"></path>
</svg>
